<svg width="120" height="25" xmlns="http://www.w3.org/2000/svg">

 <g>
  <title>background</title>
  <rect fill="none" id="canvas_background" height="402" width="582" y="-1" x="-1"/>
 </g>
 <g>
  <title>Layer 1</title>
  <g stroke="null" fill="#004280" id="svg_1">
   <g stroke="null" id="svg_3">
    <g stroke="null" id="svg_5">
     <path stroke="null" id="svg_6" d="m19.478308,7.250011l0,12.8l3.410248,0c5.358961,0 8.52562,-2.7 8.52562,-6.3c0,-3.6 -2.92307,-6.5 -9.256388,-6.5l-2.679481,0zm3.410248,10.2l0,-7.7c3.410248,-0.2 4.993578,1.8 4.993578,4.1c0,2.1 -1.58333,3.8 -4.993578,3.6z" fill="#FFFFFF"/>
     <polygon stroke="null" id="svg_7" points="66.8563801497221,7.250011444091797 63.32435576617718,7.250011444091797 63.32435576617718,14.350010871887207 53.70258681476116,7.05001163482666 53.70258681476116,20.050010681152344 57.23463408648968,20.050010681152344 57.23463408648968,13.350010871887207 66.8563801497221,20.65001106262207 " fill="#FFFFFF"/>
     <polygon stroke="null" id="svg_8" points="68.43970839679241,9.750009536743164 72.70252577960491,9.750009536743164 72.70252577960491,20.050010681152344 76.47816054522991,20.050010681152344 76.47816054522991,9.750009536743164 80.74097029864788,9.750009536743164 80.74097029864788,7.250011444091797 68.43970839679241,7.250011444091797 " fill="#FFFFFF"/>
     <polygon stroke="null" id="svg_9" points="82.08069960772991,20.050010681152344 82.08069960772991,7.250011444091797 91.3370930403471,7.250011444091797 91.3370930403471,9.650009155273438 85.61275832355022,9.650009155273438 85.61275832355022,12.450011253356934 90.72813002765179,12.450011253356934 90.72813002765179,14.850010871887207 85.61275832355022,14.850010871887207 85.61275832355022,17.65001106262207 91.3370930403471,17.65001106262207 91.3370930403471,20.050010681152344 " fill="#FFFFFF"/>
     <polygon stroke="null" id="svg_10" points="115.81779830157757,7.250011444091797 115.81779830157757,12.450011253356934 109.7280842512846,12.450011253356934 109.7280842512846,7.250011444091797 106.19604079425335,7.250011444091797 106.19604079425335,20.050010681152344 109.7280842512846,20.050010681152344 109.7280842512846,14.850010871887207 115.81779830157757,14.850010871887207 115.81779830157757,20.050010681152344 119.34984938800335,20.050010681152344 119.34984938800335,7.250011444091797 " fill="#FFFFFF"/>
     <polygon stroke="null" id="svg_11" points="29.70905463397503,7.250011444091797 37.62570159137249,20.450010299682617 39.57441298663616,17.050010681152344 33.72827498614788,7.250011444091797 " fill="#FFFFFF"/>
     <polygon stroke="null" id="svg_12" points="45.66414611041546,6.850011348724365 43.71543090045452,10.150009155273438 45.298759147524834,13.550009727478027 41.644923850893974,13.550009727478027 40.42697875201702,15.65001106262207 46.2731167525053,15.65001106262207 48.5872151106596,20.050010681152344 52.606437370181084,20.050010681152344 " fill="#FFFFFF"/>
     <path stroke="null" id="svg_13" d="m92.067877,13.650011c0,4.199 3.897427,6.5 8.647415,6.5c1.826919,0 2.92307,-0.4 3.653837,-0.801l0,-3c-0.730767,0.801 -2.192302,1.301 -3.653837,1.301c-2.801275,0 -5.115372,-1.601 -5.115372,-4.101s2.558904,-4 5.115372,-4c1.461535,0 2.92307,0.5 3.653837,1.3l0,-2.799c-0.608973,-0.5 -1.826919,-0.9 -3.775632,-0.9c-4.749989,0 -8.52562,2.8 -8.52562,6.5z" fill="#FFFFFF"/>
     <path stroke="null" id="svg_14" d="m7.29885,15.050011l2.192302,-4.5l2.192302,4.5l-4.384605,0zm11.326896,5l-9.012799,-16l-9.012799,16l4.384605,0l1.217946,-2.7l6.455113,0l1.33974,2.7l4.628194,0z" fill="#FFFFFF"/>
    </g>
   </g>
  </g>
 </g>
</svg>